<svg xmlns="http://www.w3.org/2000/svg" viewBox="0 0 1200 500">
  <rect width="1200" height="500" fill="#dff6ff"/>
  <path d="M0 220L120 110l120 95 120-125 120 110 120-140 120 120 120-90 120 130 120-80 120 110V500H0Z" fill="#7fb069"/>
  <path d="M0 300c90 20 170 55 260 40 96-16 169-86 262-90 96-4 162 62 261 72 112 11 213-48 417-14V500H0Z" fill="#01baef"/>
  <path d="M340 318c28-18 58-22 98-14 42 9 72 23 109 16 39-7 76-38 118-34 42 4 67 32 109 38 44 7 77-7 127-6 31 0 70 8 110 22" fill="none" stroke="#ffffff" stroke-width="10" stroke-linecap="round"/>
  <g transform="translate(500 270)">
    <ellipse cx="0" cy="55" rx="120" ry="32" fill="#ffd166"/>
    <rect x="-95" y="28" width="190" height="24" rx="12" fill="#ef476f"/>
    <circle cx="-55" cy="18" r="16" fill="#073b4c"/>
    <circle cx="-12" cy="10" r="16" fill="#073b4c"/>
    <circle cx="32" cy="12" r="16" fill="#073b4c"/>
    <circle cx="74" cy="20" r="16" fill="#073b4c"/>
    <path d="M-110 5l24 28" stroke="#8d5524" stroke-width="10" stroke-linecap="round"/>
    <path d="M110 0l-24 28" stroke="#8d5524" stroke-width="10" stroke-linecap="round"/>
  </g>
</svg>
